<svg width="280" height="17" viewBox="0 0 280 17" fill="none" xmlns="http://www.w3.org/2000/svg">
<path d="M4.63352 3.81818H3.40057L0.855114 5.50852V6.76136L3.34091 5.1108H3.40057V14H4.63352V3.81818ZM7.56179 14H13.9851V12.9062H9.25213V12.8267L11.5391 10.3807C13.2891 8.50639 13.8061 7.63139 13.8061 6.50284C13.8061 4.93182 12.5334 3.67898 10.7436 3.67898C8.95881 3.67898 7.60156 4.89205 7.60156 6.68182H8.77486C8.77486 5.52344 9.52557 4.75284 10.7038 4.75284C11.8075 4.75284 12.6527 5.42898 12.6527 6.50284C12.6527 7.44247 12.1009 8.13849 10.9226 9.42614L7.56179 13.1051V14ZM16.9134 12.6974C17.4055 12.6974 17.8082 12.2947 17.8082 11.8026C17.8082 11.3104 17.4055 10.9077 16.9134 10.9077C16.4212 10.9077 16.0185 11.3104 16.0185 11.8026C16.0185 12.2947 16.4212 12.6974 16.9134 12.6974ZM16.9134 7.54688C17.4055 7.54688 17.8082 7.14418 17.8082 6.65199C17.8082 6.1598 17.4055 5.7571 16.9134 5.7571C16.4212 5.7571 16.0185 6.1598 16.0185 6.65199C16.0185 7.14418 16.4212 7.54688 16.9134 7.54688ZM23.2148 14.1392C25.462 14.1392 26.7546 12.2351 26.7546 8.90909C26.7546 5.60795 25.4421 3.67898 23.2148 3.67898C20.9876 3.67898 19.6751 5.60795 19.6751 8.90909C19.6751 12.2351 20.9677 14.1392 23.2148 14.1392ZM23.2148 13.0455C21.7333 13.0455 20.8683 11.5589 20.8683 8.90909C20.8683 6.2642 21.7433 4.75284 23.2148 4.75284C24.6864 4.75284 25.5614 6.2642 25.5614 8.90909C25.5614 11.5589 24.6964 13.0455 23.2148 13.0455ZM28.6438 14H35.0671V12.9062H30.3342V12.8267L32.6211 10.3807C34.3711 8.50639 34.8881 7.63139 34.8881 6.50284C34.8881 4.93182 33.6154 3.67898 31.8256 3.67898C30.0408 3.67898 28.6836 4.89205 28.6836 6.68182H29.8569C29.8569 5.52344 30.6076 4.75284 31.7859 4.75284C32.8896 4.75284 33.7347 5.42898 33.7347 6.50284C33.7347 7.44247 33.1829 8.13849 32.0046 9.42614L28.6438 13.1051V14Z" fill="white"/>
<path d="M247.494 14.1392C249.468 14.1392 250.935 12.9013 250.935 11.2358C250.935 9.94318 250.169 9.00355 248.886 8.78977V8.71023C249.915 8.39702 250.557 7.55185 250.557 6.40341C250.557 4.96165 249.418 3.67898 247.534 3.67898C245.774 3.67898 244.312 4.76278 244.253 6.36364H245.446C245.491 5.34943 246.455 4.75284 247.514 4.75284C248.638 4.75284 249.364 5.43395 249.364 6.46307C249.364 7.53693 248.523 8.23295 247.315 8.23295H246.5V9.3267H247.315C248.862 9.3267 249.722 10.1122 249.722 11.2358C249.722 12.3146 248.782 13.0455 247.474 13.0455C246.296 13.0455 245.362 12.4389 245.287 11.4545H244.034C244.109 13.0554 245.521 14.1392 247.494 14.1392ZM256.15 14.1392C258.089 14.1392 259.511 12.7074 259.511 10.7585C259.511 8.7848 258.138 7.33807 256.269 7.33807C255.583 7.33807 254.917 7.58168 254.499 7.91477H254.44L254.798 4.91193H259.053V3.81818H253.763L253.147 8.82955L254.3 8.96875C254.723 8.66548 255.444 8.44673 256.07 8.4517C257.368 8.46165 258.317 9.44602 258.317 10.7784C258.317 12.0859 257.403 13.0455 256.15 13.0455C255.106 13.0455 254.276 12.3743 254.181 11.4545H252.988C253.062 13.0057 254.4 14.1392 256.15 14.1392ZM262.361 12.6974C262.853 12.6974 263.256 12.2947 263.256 11.8026C263.256 11.3104 262.853 10.9077 262.361 10.9077C261.868 10.9077 261.466 11.3104 261.466 11.8026C261.466 12.2947 261.868 12.6974 262.361 12.6974ZM262.361 7.54688C262.853 7.54688 263.256 7.14418 263.256 6.65199C263.256 6.1598 262.853 5.7571 262.361 5.7571C261.868 5.7571 261.466 6.1598 261.466 6.65199C261.466 7.14418 261.868 7.54688 262.361 7.54688ZM268.921 3.81818H267.688L265.142 5.50852V6.76136L267.628 5.1108H267.688V14H268.921V3.81818ZM275.11 14.1392C277.144 14.1392 278.561 12.951 278.57 11.2955C278.561 10.0078 277.7 8.91406 276.602 8.71023V8.65057C277.556 8.40199 278.183 7.46733 278.193 6.38352C278.183 4.83239 276.88 3.67898 275.11 3.67898C273.32 3.67898 272.018 4.83239 272.028 6.38352C272.018 7.46733 272.644 8.40199 273.619 8.65057V8.71023C272.5 8.91406 271.64 10.0078 271.65 11.2955C271.64 12.951 273.057 14.1392 275.11 14.1392ZM275.11 13.0455C273.713 13.0455 272.853 12.3295 272.863 11.2358C272.853 10.0874 273.803 9.26705 275.11 9.26705C276.398 9.26705 277.347 10.0874 277.357 11.2358C277.347 12.3295 276.487 13.0455 275.11 13.0455ZM275.11 8.21307C273.997 8.21307 273.211 7.51705 273.221 6.46307C273.211 5.42898 273.967 4.75284 275.11 4.75284C276.234 4.75284 276.99 5.42898 276.999 6.46307C276.99 7.51705 276.204 8.21307 275.11 8.21307Z" fill="white"/>
<rect x="101" y="7" width="126" height="4" rx="2" fill="#9F75FF"/>
<rect x="53" y="7" width="48" height="4" rx="2" fill="#04D361"/>
<circle cx="105" cy="9" r="6" fill="white" stroke="#04D361" stroke-width="4"/>
</svg>
